<svg xmlns="http://www.w3.org/2000/svg" xmlns:xlink="http://www.w3.org/1999/xlink" width="1920" zoomAndPan="magnify" viewBox="0 0 1440 809.999993" height="1080" preserveAspectRatio="xMidYMid meet" version="1.0"><defs><clipPath id="305379da12"><path d="M 0.476562 0 L 810.476562 0 L 810.476562 810 L 0.476562 810 Z M 0.476562 0 " clip-rule="nonzero"/></clipPath><clipPath id="03f00d6f85"><rect x="0" width="811" y="0" height="810"/></clipPath></defs><g transform="matrix(1, 0, 0, 1, 270, 0.000000000000039746)"><g clip-path="url(#03f00d6f85)"><g clip-path="url(#305379da12)"><path fill="#ffffff" d="M 0.476562 0 L 810.476562 0 L 810.476562 810 L 0.476562 810 Z M 0.476562 0 " fill-opacity="1" fill-rule="nonzero"/></g><path stroke-linecap="butt" transform="matrix(19.756098, 0, 0, 19.756098, 0.476536, 0.00002)" fill-opacity="1" fill="#ffffff" fill-rule="nonzero" stroke-linejoin="miter" d="M 1.999977 2.500018 L 8.999992 2.500018 M 10.999968 2.500018 L 16.000006 2.500018 M 19.000069 2.500018 L 21.000045 2.500018 M 21.999934 2.500018 L 24.999996 2.500018 M 26.000083 2.500018 L 26.999972 2.500018 M 30.000035 2.500018 L 30.999924 2.500018 M 32.000011 2.500018 L 39.000025 2.500018 M 1.999977 3.499907 L 3.000064 3.499907 M 7.999905 3.499907 L 8.999992 3.499907 M 10.999968 3.499907 L 14.00003 3.499907 M 14.999919 3.499907 L 16.000006 3.499907 M 17.999982 3.499907 L 19.999958 3.499907 M 21.000045 3.499907 L 21.999934 3.499907 M 23.99991 3.499907 L 24.999996 3.499907 M 28.999948 3.499907 L 30.999924 3.499907 M 32.000011 3.499907 L 33.000098 3.499907 M 37.999938 3.499907 L 39.000025 3.499907 M 1.999977 4.499994 L 3.000064 4.499994 M 3.999953 4.499994 L 7.000016 4.499994 M 7.999905 4.499994 L 8.999992 4.499994 M 10.000078 4.499994 L 10.999968 4.499994 M 12.000054 4.499994 L 12.999943 4.499994 M 14.00003 4.499994 L 14.999919 4.499994 M 17.000093 4.499994 L 19.000069 4.499994 M 19.999958 4.499994 L 23.99991 4.499994 M 26.000083 4.499994 L 26.999972 4.499994 M 28.999948 4.499994 L 30.000035 4.499994 M 32.000011 4.499994 L 33.000098 4.499994 M 33.999987 4.499994 L 37.000049 4.499994 M 37.999938 4.499994 L 39.000025 4.499994 M 1.999977 5.500081 L 3.000064 5.500081 M 3.999953 5.500081 L 7.000016 5.500081 M 7.999905 5.500081 L 8.999992 5.500081 M 10.000078 5.500081 L 10.999968 5.500081 M 14.999919 5.500081 L 19.999958 5.500081 M 21.000045 5.500081 L 21.999934 5.500081 M 26.999972 5.500081 L 30.999924 5.500081 M 32.000011 5.500081 L 33.000098 5.500081 M 33.999987 5.500081 L 37.000049 5.500081 M 37.999938 5.500081 L 39.000025 5.500081 M 1.999977 6.49997 L 3.000064 6.49997 M 3.999953 6.49997 L 7.000016 6.49997 M 7.999905 6.49997 L 8.999992 6.49997 M 10.000078 6.49997 L 16.000006 6.49997 M 19.999958 6.49997 L 21.999934 6.49997 M 23.99991 6.49997 L 28.999948 6.49997 M 30.000035 6.49997 L 30.999924 6.49997 M 32.000011 6.49997 L 33.000098 6.49997 M 33.999987 6.49997 L 37.000049 6.49997 M 37.999938 6.49997 L 39.000025 6.49997 M 1.999977 7.500057 L 3.000064 7.500057 M 7.999905 7.500057 L 8.999992 7.500057 M 10.000078 7.500057 L 16.000006 7.500057 M 17.999982 7.500057 L 19.000069 7.500057 M 19.999958 7.500057 L 21.000045 7.500057 M 23.99991 7.500057 L 24.999996 7.500057 M 26.999972 7.500057 L 30.999924 7.500057 M 32.000011 7.500057 L 33.000098 7.500057 M 37.999938 7.500057 L 39.000025 7.500057 M 1.999977 8.499946 L 8.999992 8.499946 M 10.000078 8.499946 L 10.999968 8.499946 M 12.000054 8.499946 L 12.999943 8.499946 M 14.00003 8.499946 L 14.999919 8.499946 M 16.000006 8.499946 L 17.000093 8.499946 M 17.999982 8.499946 L 19.000069 8.499946 M 19.999958 8.499946 L 21.000045 8.499946 M 21.999934 8.499946 L 23.00002 8.499946 M 23.99991 8.499946 L 24.999996 8.499946 M 26.000083 8.499946 L 26.999972 8.499946 M 28.000059 8.499946 L 28.999948 8.499946 M 30.000035 8.499946 L 30.999924 8.499946 M 32.000011 8.499946 L 39.000025 8.499946 M 10.000078 9.500033 L 12.000054 9.500033 M 16.000006 9.500033 L 19.000069 9.500033 M 21.000045 9.500033 L 21.999934 9.500033 M 24.999996 9.500033 L 26.000083 9.500033 M 30.000035 9.500033 L 30.999924 9.500033 M 1.999977 10.499922 L 3.000064 10.499922 M 3.999953 10.499922 L 8.999992 10.499922 M 10.999968 10.499922 L 14.00003 10.499922 M 14.999919 10.499922 L 16.000006 10.499922 M 19.999958 10.499922 L 21.000045 10.499922 M 21.999934 10.499922 L 24.999996 10.499922 M 26.000083 10.499922 L 30.000035 10.499922 M 32.000011 10.499922 L 37.000049 10.499922 M 1.999977 11.500009 L 5.00004 11.500009 M 7.000016 11.500009 L 7.999905 11.500009 M 8.999992 11.500009 L 16.000006 11.500009 M 17.000093 11.500009 L 19.999958 11.500009 M 23.00002 11.500009 L 23.99991 11.500009 M 28.000059 11.500009 L 28.999948 11.500009 M 30.000035 11.500009 L 32.000011 11.500009 M 33.000098 11.500009 L 33.999987 11.500009 M 37.000049 11.500009 L 37.999938 11.500009 M 1.999977 12.500095 L 5.00004 12.500095 M 7.000016 12.500095 L 8.999992 12.500095 M 10.999968 12.500095 L 12.999943 12.500095 M 19.999958 12.500095 L 21.000045 12.500095 M 21.999934 12.500095 L 23.99991 12.500095 M 24.999996 12.500095 L 28.000059 12.500095 M 28.999948 12.500095 L 30.000035 12.500095 M 30.999924 12.500095 L 33.999987 12.500095 M 35.000073 12.500095 L 35.999962 12.500095 M 37.000049 12.500095 L 39.000025 12.500095 M 3.000064 13.499984 L 3.999953 13.499984 M 7.000016 13.499984 L 7.999905 13.499984 M 10.999968 13.499984 L 12.000054 13.499984 M 14.00003 13.499984 L 14.999919 13.499984 M 16.000006 13.499984 L 17.000093 13.499984 M 17.999982 13.499984 L 19.000069 13.499984 M 23.00002 13.499984 L 23.99991 13.499984 M 24.999996 13.499984 L 26.000083 13.499984 M 28.999948 13.499984 L 30.000035 13.499984 M 30.999924 13.499984 L 32.000011 13.499984 M 37.999938 13.499984 L 39.000025 13.499984 M 3.999953 14.500071 L 5.00004 14.500071 M 7.000016 14.500071 L 12.000054 14.500071 M 19.000069 14.500071 L 19.999958 14.500071 M 24.999996 14.500071 L 26.000083 14.500071 M 26.999972 14.500071 L 30.000035 14.500071 M 30.999924 14.500071 L 35.000073 14.500071 M 35.999962 14.500071 L 39.000025 14.500071 M 1.999977 15.49996 L 3.000064 15.49996 M 3.999953 15.49996 L 5.00004 15.49996 M 5.999929 15.49996 L 7.999905 15.49996 M 8.999992 15.49996 L 12.000054 15.49996 M 12.999943 15.49996 L 16.000006 15.49996 M 17.999982 15.49996 L 23.99991 15.49996 M 24.999996 15.49996 L 26.999972 15.49996 M 30.000035 15.49996 L 32.000011 15.49996 M 33.000098 15.49996 L 33.999987 15.49996 M 37.000049 15.49996 L 39.000025 15.49996 M 1.999977 16.500047 L 3.000064 16.500047 M 3.999953 16.500047 L 5.00004 16.500047 M 7.000016 16.500047 L 10.999968 16.500047 M 16.000006 16.500047 L 17.999982 16.500047 M 19.000069 16.500047 L 19.999958 16.500047 M 21.999934 16.500047 L 23.99991 16.500047 M 26.000083 16.500047 L 26.999972 16.500047 M 28.000059 16.500047 L 30.000035 16.500047 M 32.000011 16.500047 L 35.999962 16.500047 M 37.000049 16.500047 L 39.000025 16.500047 M 1.999977 17.499936 L 3.000064 17.499936 M 3.999953 17.499936 L 5.999929 17.499936 M 7.000016 17.499936 L 7.999905 17.499936 M 12.999943 17.499936 L 16.000006 17.499936 M 17.000093 17.499936 L 21.000045 17.499936 M 21.999934 17.499936 L 24.999996 17.499936 M 30.000035 17.499936 L 30.999924 17.499936 M 33.000098 17.499936 L 35.000073 17.499936 M 37.000049 17.499936 L 37.999938 17.499936 M 3.000064 18.500023 L 5.999929 18.500023 M 7.000016 18.500023 L 10.000078 18.500023 M 14.00003 18.500023 L 14.999919 18.500023 M 17.000093 18.500023 L 19.000069 18.500023 M 23.00002 18.500023 L 23.99991 18.500023 M 26.000083 18.500023 L 26.999972 18.500023 M 28.000059 18.500023 L 28.999948 18.500023 M 30.000035 18.500023 L 33.000098 18.500023 M 33.999987 18.500023 L 35.000073 18.500023 M 35.999962 18.500023 L 37.000049 18.500023 M 37.999938 18.500023 L 39.000025 18.500023 M 1.999977 19.499912 L 3.000064 19.499912 M 5.999929 19.499912 L 7.999905 19.499912 M 8.999992 19.499912 L 10.999968 19.499912 M 12.000054 19.499912 L 12.999943 19.499912 M 16.000006 19.499912 L 17.999982 19.499912 M 19.000069 19.499912 L 21.000045 19.499912 M 21.999934 19.499912 L 23.00002 19.499912 M 23.99991 19.499912 L 24.999996 19.499912 M 26.000083 19.499912 L 28.999948 19.499912 M 30.000035 19.499912 L 32.000011 19.499912 M 33.000098 19.499912 L 33.999987 19.499912 M 35.000073 19.499912 L 35.999962 19.499912 M 37.000049 19.499912 L 37.999938 19.499912 M 3.000064 20.499999 L 3.999953 20.499999 M 5.999929 20.499999 L 7.000016 20.499999 M 7.999905 20.499999 L 10.000078 20.499999 M 10.999968 20.499999 L 14.999919 20.499999 M 16.000006 20.499999 L 19.999958 20.499999 M 21.000045 20.499999 L 21.999934 20.499999 M 23.99991 20.499999 L 24.999996 20.499999 M 26.999972 20.499999 L 30.999924 20.499999 M 32.000011 20.499999 L 33.000098 20.499999 M 35.000073 20.499999 L 39.000025 20.499999 M 3.000064 21.500086 L 5.00004 21.500086 M 10.999968 21.500086 L 12.000054 21.500086 M 12.999943 21.500086 L 14.999919 21.500086 M 17.000093 21.500086 L 17.999982 21.500086 M 21.000045 21.500086 L 23.99991 21.500086 M 24.999996 21.500086 L 26.000083 21.500086 M 28.000059 21.500086 L 30.000035 21.500086 M 37.999938 21.500086 L 39.000025 21.500086 M 1.999977 22.499975 L 3.000064 22.499975 M 7.999905 22.499975 L 8.999992 22.499975 M 10.000078 22.499975 L 12.000054 22.499975 M 12.999943 22.499975 L 14.00003 22.499975 M 14.999919 22.499975 L 23.00002 22.499975 M 23.99991 22.499975 L 26.000083 22.499975 M 26.999972 22.499975 L 28.999948 22.499975 M 30.999924 22.499975 L 33.000098 22.499975 M 33.999987 22.499975 L 37.000049 22.499975 M 1.999977 23.500061 L 3.000064 23.500061 M 3.999953 23.500061 L 7.999905 23.500061 M 8.999992 23.500061 L 10.000078 23.500061 M 10.999968 23.500061 L 12.999943 23.500061 M 14.00003 23.500061 L 14.999919 23.500061 M 16.000006 23.500061 L 17.000093 23.500061 M 17.999982 23.500061 L 19.000069 23.500061 M 19.999958 23.500061 L 23.00002 23.500061 M 24.999996 23.500061 L 26.999972 23.500061 M 30.000035 23.500061 L 30.999924 23.500061 M 35.000073 23.500061 L 35.999962 23.500061 M 37.000049 23.500061 L 37.999938 23.500061 M 5.999929 24.499951 L 8.999992 24.499951 M 10.000078 24.499951 L 10.999968 24.499951 M 14.00003 24.499951 L 14.999919 24.499951 M 17.000093 24.499951 L 19.000069 24.499951 M 19.999958 24.499951 L 21.000045 24.499951 M 23.99991 24.499951 L 24.999996 24.499951 M 26.999972 24.499951 L 35.999962 24.499951 M 37.000049 24.499951 L 39.000025 24.499951 M 1.999977 25.500037 L 5.999929 25.500037 M 7.000016 25.500037 L 7.999905 25.500037 M 8.999992 25.500037 L 10.000078 25.500037 M 14.999919 25.500037 L 16.000006 25.500037 M 24.999996 25.500037 L 26.999972 25.500037 M 28.999948 25.500037 L 30.000035 25.500037 M 32.000011 25.500037 L 35.000073 25.500037 M 5.00004 26.499926 L 7.000016 26.499926 M 7.999905 26.499926 L 8.999992 26.499926 M 14.00003 26.499926 L 16.000006 26.499926 M 17.000093 26.499926 L 17.999982 26.499926 M 19.999958 26.499926 L 24.999996 26.499926 M 26.000083 26.499926 L 28.999948 26.499926 M 30.999924 26.499926 L 33.999987 26.499926 M 35.999962 26.499926 L 37.000049 26.499926 M 37.999938 26.499926 L 39.000025 26.499926 M 1.999977 27.500013 L 5.999929 27.500013 M 7.000016 27.500013 L 7.999905 27.500013 M 8.999992 27.500013 L 12.000054 27.500013 M 14.999919 27.500013 L 19.999958 27.500013 M 23.00002 27.500013 L 23.99991 27.500013 M 24.999996 27.500013 L 28.000059 27.500013 M 30.000035 27.500013 L 30.999924 27.500013 M 33.000098 27.500013 L 33.999987 27.500013 M 35.000073 27.500013 L 37.000049 27.500013 M 1.999977 28.499902 L 3.000064 28.499902 M 3.999953 28.499902 L 5.999929 28.499902 M 7.000016 28.499902 L 12.000054 28.499902 M 12.999943 28.499902 L 14.00003 28.499902 M 16.000006 28.499902 L 17.000093 28.499902 M 19.000069 28.499902 L 19.999958 28.499902 M 21.999934 28.499902 L 23.00002 28.499902 M 23.99991 28.499902 L 24.999996 28.499902 M 28.000059 28.499902 L 30.999924 28.499902 M 33.000098 28.499902 L 35.000073 28.499902 M 37.000049 28.499902 L 39.000025 28.499902 M 1.999977 29.499989 L 3.000064 29.499989 M 5.999929 29.499989 L 7.000016 29.499989 M 10.000078 29.499989 L 10.999968 29.499989 M 12.000054 29.499989 L 12.999943 29.499989 M 16.000006 29.499989 L 17.000093 29.499989 M 17.999982 29.499989 L 19.000069 29.499989 M 23.00002 29.499989 L 26.000083 29.499989 M 28.000059 29.499989 L 28.999948 29.499989 M 30.999924 29.499989 L 35.000073 29.499989 M 37.000049 29.499989 L 39.000025 29.499989 M 1.999977 30.500076 L 3.000064 30.500076 M 5.00004 30.500076 L 5.999929 30.500076 M 7.000016 30.500076 L 8.999992 30.500076 M 10.000078 30.500076 L 10.999968 30.500076 M 12.000054 30.500076 L 12.999943 30.500076 M 14.999919 30.500076 L 17.000093 30.500076 M 23.99991 30.500076 L 24.999996 30.500076 M 26.999972 30.500076 L 37.000049 30.500076 M 37.999938 30.500076 L 39.000025 30.500076 M 10.000078 31.499965 L 10.999968 31.499965 M 12.999943 31.499965 L 14.00003 31.499965 M 16.000006 31.499965 L 17.000093 31.499965 M 17.999982 31.499965 L 19.999958 31.499965 M 21.000045 31.499965 L 23.99991 31.499965 M 24.999996 31.499965 L 26.000083 31.499965 M 26.999972 31.499965 L 30.999924 31.499965 M 33.999987 31.499965 L 35.999962 31.499965 M 37.000049 31.499965 L 37.999938 31.499965 M 1.999977 32.500052 L 8.999992 32.500052 M 14.999919 32.500052 L 16.000006 32.500052 M 17.000093 32.500052 L 19.999958 32.500052 M 23.00002 32.500052 L 23.99991 32.500052 M 26.000083 32.500052 L 26.999972 32.500052 M 30.000035 32.500052 L 30.999924 32.500052 M 32.000011 32.500052 L 33.000098 32.500052 M 33.999987 32.500052 L 35.000073 32.500052 M 35.999962 32.500052 L 39.000025 32.500052 M 1.999977 33.499941 L 3.000064 33.499941 M 7.999905 33.499941 L 8.999992 33.499941 M 10.000078 33.499941 L 12.999943 33.499941 M 16.000006 33.499941 L 21.000045 33.499941 M 21.999934 33.499941 L 24.999996 33.499941 M 28.000059 33.499941 L 28.999948 33.499941 M 30.000035 33.499941 L 30.999924 33.499941 M 33.999987 33.499941 L 35.999962 33.499941 M 37.000049 33.499941 L 37.999938 33.499941 M 1.999977 34.500028 L 3.000064 34.500028 M 3.999953 34.500028 L 7.000016 34.500028 M 7.999905 34.500028 L 8.999992 34.500028 M 10.000078 34.500028 L 12.000054 34.500028 M 14.00003 34.500028 L 14.999919 34.500028 M 16.000006 34.500028 L 19.000069 34.500028 M 23.00002 34.500028 L 23.99991 34.500028 M 26.999972 34.500028 L 35.000073 34.500028 M 35.999962 34.500028 L 37.999938 34.500028 M 1.999977 35.499917 L 3.000064 35.499917 M 3.999953 35.499917 L 7.000016 35.499917 M 7.999905 35.499917 L 8.999992 35.499917 M 10.000078 35.499917 L 10.999968 35.499917 M 12.000054 35.499917 L 12.999943 35.499917 M 16.000006 35.499917 L 17.999982 35.499917 M 19.999958 35.499917 L 21.000045 35.499917 M 21.999934 35.499917 L 23.00002 35.499917 M 23.99991 35.499917 L 26.000083 35.499917 M 28.999948 35.499917 L 30.000035 35.499917 M 30.999924 35.499917 L 33.000098 35.499917 M 33.999987 35.499917 L 35.000073 35.499917 M 37.999938 35.499917 L 39.000025 35.499917 M 1.999977 36.500004 L 3.000064 36.500004 M 3.999953 36.500004 L 7.000016 36.500004 M 7.999905 36.500004 L 8.999992 36.500004 M 10.000078 36.500004 L 12.999943 36.500004 M 14.00003 36.500004 L 14.999919 36.500004 M 16.000006 36.500004 L 19.999958 36.500004 M 21.000045 36.500004 L 21.999934 36.500004 M 23.00002 36.500004 L 23.99991 36.500004 M 30.999924 36.500004 L 32.000011 36.500004 M 35.999962 36.500004 L 39.000025 36.500004 M 1.999977 37.50009 L 3.000064 37.50009 M 7.999905 37.50009 L 8.999992 37.50009 M 10.999968 37.50009 L 14.00003 37.50009 M 14.999919 37.50009 L 17.999982 37.50009 M 19.999958 37.50009 L 24.999996 37.50009 M 28.999948 37.50009 L 30.999924 37.50009 M 33.999987 37.50009 L 35.000073 37.50009 M 37.999938 37.50009 L 39.000025 37.50009 M 1.999977 38.499979 L 8.999992 38.499979 M 10.000078 38.499979 L 10.999968 38.499979 M 12.000054 38.499979 L 12.999943 38.499979 M 16.000006 38.499979 L 17.999982 38.499979 M 19.000069 38.499979 L 19.999958 38.499979 M 21.000045 38.499979 L 23.00002 38.499979 M 23.99991 38.499979 L 24.999996 38.499979 M 26.999972 38.499979 L 28.999948 38.499979 M 30.999924 38.499979 L 33.000098 38.499979 M 33.999987 38.499979 L 35.000073 38.499979 M 37.000049 38.499979 L 39.000025 38.499979 " stroke="#000000" stroke-width="1" stroke-opacity="1" stroke-miterlimit="4"/></g></g></svg>